trial_5_ID.mot
nRows=10
nColumns=42

name trial_5_ID.mot
datacolumns 42
datarows 10
range 7.8100000000 7.9000000000
endheader
time	pelvis_tilt_moment	pelvis_list_moment	pelvis_rotation_moment	pelvis_tx_force	pelvis_ty_force	pelvis_tz_force	hip_flexion_r_moment	hip_adduction_r_moment	hip_rotation_r_moment	knee_angle_r_moment	knee_vv_r_moment	knee_rot_r_moment	ankle_angle_r_moment	subtalar_angle_r_moment	mtp_angle_r_moment	hip_flexion_l_moment	hip_adduction_l_moment	hip_rotation_l_moment	knee_angle_l_moment	knee_vv_l_moment	knee_rot_l_moment	ankle_angle_l_moment	subtalar_angle_l_moment	mtp_angle_l_moment	lumbar_extension_moment	lumbar_bending_moment	lumbar_rotation_moment	arm_flex_r_moment	arm_add_r_moment	arm_rot_r_moment	elbow_flex_r_moment	pro_sup_r_moment	wrist_flex_r_moment	wrist_dev_r_moment	arm_flex_l_moment	arm_add_l_moment	arm_rot_l_moment	elbow_flex_l_moment	pro_sup_l_moment	wrist_flex_l_moment	wrist_dev_l_moment
        7.8100000000	      -11.3294844000	        8.3862683200	       -3.6284843900	      -19.1331300700	      -11.0609108200	      -13.5353866200	      -13.9303615000	        6.9865794800	       -1.8213106800	       -7.6405803500	        4.8997410300	       -1.2650228400	        5.3448870500	       -0.7839630000	        0.0260685700	       10.8371957700	      -41.5233532100	       -2.8142695300	      -24.3616734900	       18.0403368800	        4.2215173700	      -70.3179818300	       12.2843475000	        0.0258626500	       15.9340118200	        2.1423662700	        3.0756234500	        0.3593705500	       -1.9308619900	       -0.0436325600	       -0.1131943000	       -0.0126192800	       -0.0438173500	       -0.0216215700	       -0.8922410000	       -1.4790058400	        0.0429072400	       -0.0584600700	        0.0055650700	        0.0323378700	        0.0440295400	
        7.8200000000	      -10.8248493000	        8.6404643100	       -3.9070593100	      -20.9868517400	       -6.5636776000	      -12.7454894400	      -13.5174903700	        6.8753143300	       -2.3442260600	       -5.5852948800	        5.1996921600	       -1.6859423700	        6.0723277400	       -0.8710250800	        0.0338755700	       10.9107862900	      -38.7790880100	       -2.4599608400	      -24.0615306300	       16.5325856900	        3.8029723800	      -69.6641538800	       12.2997210600	        0.0243836000	       17.1685890500	        1.6920966100	        2.8383653600	        0.2514029600	       -1.8898694600	       -0.0467814300	       -0.1281702800	       -0.0122102000	       -0.0404161600	       -0.0194948000	       -0.9435848400	       -1.4753624500	        0.0679690700	       -0.0535495800	        0.0085839500	        0.0380303100	        0.0452100000	
        7.8300000000	      -10.3255746600	        8.6720535400	       -4.2031591200	      -22.8230418100	       -2.9678804200	      -11.1389818000	      -13.5659285200	        6.1580312300	       -2.8901944100	       -3.4795882100	        5.1978350500	       -2.1374243300	        6.3824122100	       -0.8330949600	        0.0412352100	       11.0038364900	      -35.6153301400	       -2.0187330600	      -23.3452515500	       14.8288893800	        3.3079602300	      -68.3876014600	       12.1899715500	        0.0224035700	       18.6431130200	        1.2142433900	        2.6655438100	        0.1434112500	       -1.8562159300	       -0.0512526700	       -0.1442896000	       -0.0119832600	       -0.0371234500	       -0.0172507600	       -1.0019198600	       -1.4695089100	        0.0931355900	       -0.0491525400	        0.0119288800	        0.0435403800	        0.0459525700	
        7.8400000000	       -9.7391042100	        8.4814805800	       -4.3892994800	      -24.4477764700	       -0.3336145700	       -8.8885590000	      -14.0137601600	        4.9468915400	       -3.3936376000	       -1.3168143200	        4.9120810700	       -2.5811939800	        6.2317414900	       -0.6537424000	        0.0475982900	       11.1526587400	      -31.9778302400	       -1.5045365700	      -22.1387897600	       12.9341076500	        2.7441975900	      -66.4256456200	       11.9308614300	        0.0200720500	       20.2674075100	        0.7127038900	        2.5739335200	        0.0418487000	       -1.8349808900	       -0.0572007300	       -0.1615707400	       -0.0120035100	       -0.0341960100	       -0.0149467300	       -1.0604405000	       -1.4694451400	        0.1145630000	       -0.0466206800	        0.0152792800	        0.0480219400	        0.0459887300	
        7.8500000000	       -8.9821785400	        8.0033192800	       -4.3492051200	      -25.6348899200	        1.5569331000	       -6.0887504100	      -14.7171063400	        3.3100777300	       -3.7922823500	        0.9216506400	        4.3443044800	       -2.9854811100	        5.6505741300	       -0.3430911100	        0.0525377700	       11.3814043300	      -27.8376037800	       -0.9436634900	      -20.3973449300	       10.8651063700	        2.1256822600	      -63.7237574300	       11.5051753600	        0.0176923100	       21.8990106000	        0.1952989700	        2.5705657900	       -0.0476308600	       -1.8297945700	       -0.0645081100	       -0.1800676000	       -0.0122775900	       -0.0318304800	       -0.0126142600	       -1.1092195100	       -1.4834471300	        0.1284113500	       -0.0467594900	        0.0182385600	        0.0506003400	        0.0450196500	
        7.8600000000	       -7.9051178600	        7.1368084900	       -3.9975892200	      -25.9785345600	        3.2252696400	       -2.8051941800	      -15.3907009100	        1.2577845800	       -4.0319603200	        3.2995801700	        3.4776997800	       -3.3284966800	        4.7300715500	        0.0665972800	        0.0557976700	       11.7000759900	      -23.2210756500	       -0.3751896500	      -18.1198996800	        8.6585431900	        1.4737025300	      -60.2443647600	       10.9051428900	        0.0157221800	       23.3606552800	       -0.3247921200	        2.6494194800	       -0.1210538400	       -1.8417488500	       -0.0727828500	       -0.1996892200	       -0.0127508900	       -0.0301177000	       -0.0102683200	       -1.1359372400	       -1.5187957500	        0.1314791000	       -0.0495571600	        0.0203766700	        0.0504993700	        0.0427446100	
        7.8700000000	       -6.5590349000	        5.8228981500	       -3.3428297400	      -25.2327939700	        5.1618626600	        0.8361314100	      -15.8971534400	       -1.2269049200	       -4.0718945600	        5.8129078600	        2.2899344500	       -3.5992904000	        3.5952262100	        0.5305537800	        0.0572759000	       12.1060308600	      -18.2373920000	        0.1510839300	      -15.3597766700	        6.3777351500	        0.8172169600	      -55.9772654100	       10.1337412000	        0.0147380300	       24.4737855700	       -0.8289293900	        2.7922924200	       -0.1761779900	       -1.8690250800	       -0.0814185600	       -0.2199739500	       -0.0133239800	       -0.0290406300	       -0.0079327500	       -1.1276002600	       -1.5806885300	        0.1217582400	       -0.0541919300	        0.0212838100	        0.0471580000	        0.0389046300	
        7.8800000000	       -5.0579195200	        4.1124165000	       -2.4776374100	      -23.2079452300	        7.7221505900	        4.5699950400	      -16.1724434900	       -4.1508926300	       -3.8901273500	        8.4175172700	        0.7724065600	       -3.7960238900	        2.3817957900	        1.0020044600	        0.0570213700	       12.5860081800	      -13.0925809000	        0.5806219300	      -12.2292607900	        4.1156105500	        0.1918365000	      -50.9515870700	        9.2051215200	        0.0153586300	       25.0997163100	       -1.2946239400	        2.9736345100	       -0.2120360900	       -1.9073707300	       -0.0897037000	       -0.2399708400	       -0.0138808700	       -0.0285112300	       -0.0056649800	       -1.0732491400	       -1.6712441500	        0.0988509400	       -0.0593253900	        0.0206313300	        0.0403308300	        0.0333397500	
        7.8900000000	       -3.8594688900	        2.1899432500	       -1.5251930600	      -20.2678880100	       11.0532910700	        8.0185503400	      -16.2110753300	       -7.4807296700	       -3.4882230100	       11.0379366500	       -1.0544656500	       -3.9235920900	        1.2157062700	        1.4410069100	        0.0552190700	       12.8169161000	       -8.0725528100	        0.8640034300	       -9.0126126200	        1.9901739800	       -0.3627056700	      -45.2518702600	        8.1445864800	        0.0181487900	       25.1707287300	       -1.6983005700	        3.1669969400	       -0.2285829900	       -1.9511472500	       -0.0969468000	       -0.2583531800	       -0.0143149000	       -0.0284160900	       -0.0035581000	       -0.9670826300	       -1.7884659100	        0.0641947500	       -0.0635600700	        0.0182345900	        0.0301716800	        0.0260519800	
        7.9000000000	       -3.1696769900	        0.3596800800	       -0.6546724100	      -16.6029653400	       14.9191002000	       10.7257440600	      -16.0426793000	      -11.1335489300	       -2.8923322100	       13.5808194900	       -3.1363784700	       -3.9909327600	        0.1969313500	        1.8200374900	        0.0521671400	       12.6586744100	       -3.5093551200	        0.9718779000	       -5.9604803100	        0.1317422900	       -0.8094101700	      -39.0254614400	        6.9884677700	        0.0233786800	       24.6960900600	       -2.0186383100	        3.3502763500	       -0.2266356900	       -1.9944497700	       -0.1025847200	       -0.2737097500	       -0.0145438000	       -0.0286421400	       -0.0017168900	       -0.8108394000	       -1.9254158300	        0.0209845600	       -0.0658436700	        0.0141045000	        0.0172833900	        0.0172530900	
